#!OML:ASF H:\Terrain\Patient Classification 1\Animal1\Tuesday\Animal1.ASF
:FULLY-SPECIFIED
:DEGREES
4738
root 10.748 16.7526 -1.64025 9.16614 -33.628 2.57155
lowerback 1.0031 0.612059 -0.575696
upperback -3.63101 0.7902 0.103277
thorax -4.31013 0.409694 0.391833
lowerneck -15.4172 7.76609 -0.829102
upperneck 20.1053 9.16556 7.82836
head 8.36127 5.07914 3.804
rclavicle 5.41688e-014 1.27222e-014
rhumerus -1.73362 19.6841 -76.515
rradius 90.0779
rwrist 11.8638
rhand 1.86036 -1058.98
rfingers 7.12502
rthumb 27.371 -7.01644
lclavicle 5.41688e-014 1.27222e-014
lhumerus -6.92477 -28.053 76.6915
lradius 94.6223
lwrist -53.9809
lhand 4.80988 36.8458
lfingers 7.12502
lthumb 30.1886 2224.4
rfemur -24.8163 32.0304 9.74597
rtibia 23.6026
rfoot -32.058 -39.9903
rtoes 42.9182
lfemur -5.80709 -33.1641 -16.0992
ltibia 8.69084
lfoot -28.3818 35.8878
ltoes 32.6639
4739
root 10.7466 16.748 -1.64439 9.27742 -33.6121 2.29554
lowerback 1.02544 0.633593 -0.266325
upperback -3.60123 0.829249 0.10154
thorax -4.28754 0.418456 0.214891
lowerneck -15.2883 7.80718 -0.632199
upperneck 20.09 9.19009 7.75581
head 8.34685 5.09602 3.74463
rclavicle -5.68524e-014 -7.55382e-015
rhumerus -1.72167 19.5738 -76.6906
rradius 89.9974
rwrist 12.0394
rhand 2.00678 -1059.16
rfingers 7.12502
rthumb 27.5111 -7.17324
lclavicle -5.68524e-014 -7.55382e-015
lhumerus -6.89545 -28.2766 76.5037
lradius 94.6718
lwrist -53.7847
lhand 4.79938 37.0182
lfingers 7.12502
lthumb 30.1786 2224.57
rfemur -24.6386 32.0851 10.0214
rtibia 23.271
rfoot -32.164 -39.7957
rtoes 43.9351
lfemur -6.18946 -33.1853 -15.8409
ltibia 9.50216
lfoot -28.9756 35.686
ltoes 32.2954
4740
root 10.7438 16.7451 -1.64774 9.34428 -33.6523 2.18976
lowerback 1.01805 0.663963 -0.204994
upperback -3.60559 0.871969 0.104749
thorax -4.28725 0.437677 0.181888
lowerneck -15.2133 7.87446 -0.288678
upperneck 20.1566 9.25262 7.49602
head 8.38631 5.12206 3.61221
rclavicle 8.52041e-014 3.02153e-014
rhumerus -1.69917 19.5778 -76.7247
rradius 89.9435
rwrist 12.0638
rhand 1.96129 -1059.23
rfingers 7.12502
rthumb 27.4676 -7.24495
lclavicle 8.52041e-014 3.02153e-014
lhumerus -6.79823 -28.7308 76.1764
lradius 94.8173
lwrist -53.3751
lhand 4.70311 37.4472
lfingers 7.12502
lthumb 30.0867 2225.02
rfemur -24.6329 32.2262 10.0756
rtibia 23.1
rfoot -31.7394 -40.2488
rtoes 43.6248
lfemur -6.40662 -33.1721 -15.7217
ltibia 9.89039
lfoot -29.2242 35.6116
ltoes 32.044
4741
root 10.7422 16.7456 -1.65086 9.31085 -33.6617 2.2408
lowerback 1.03034 0.652402 -0.299988
upperback -3.59721 0.853757 0.112954
thorax -4.287 0.432049 0.244302
lowerneck -15.1465 7.89695 -0.137473
upperneck 20.1209 9.28373 7.33383
head 8.37817 5.12988 3.53361
rclavicle 7.62836e-015 7.95139e-015
rhumerus -1.60529 19.6759 -76.6946
rradius 89.9074
rwrist 11.8863
rhand 1.99653 -1059.35
rfingers 7.12502
rthumb 27.5013 -7.35922
lclavicle 7.62836e-015 7.95139e-015
lhumerus -6.80238 -28.7942 76.1028
lradius 94.8523
lwrist -53.2317
lhand 4.42285 37.5726
lfingers 7.12502
lthumb 29.8193 2225.19
rfemur -24.6506 32.3054 10.0104
rtibia 23.0846
rfoot -31.3195 -40.7797
rtoes 42.6855
lfemur -6.4258 -33.2134 -15.7568
ltibia 9.94302
lfoot -29.7536 35.3287
ltoes 33.2211
4742
root 10.7401 16.7456 -1.65338 9.22077 -33.6738 2.35779
lowerback 1.03394 0.624806 -0.44418
upperback -3.57506 0.81238 0.115643
thorax -4.26787 0.416437 0.329891
lowerneck -15.1104 7.90927 -0.126251
upperneck 20.0911 9.30637 7.30194
head 8.36293 5.13767 3.52031
rclavicle -1.22874e-013 4.77083e-015
rhumerus -1.67039 19.793 -76.6321
rradius 90.0856
rwrist 11.681
rhand 2.17894 -1059.43
rfingers 7.12502
rthumb 27.6757 -7.41706
lclavicle -1.22874e-013 4.77083e-015
lhumerus -6.86176 -28.5014 76.248
lradius 94.6899
lwrist -53.5242
lhand 4.20279 37.3244
lfingers 7.12502
lthumb 29.6093 2224.98
rfemur -24.6672 32.3037 9.92769
rtibia 23.1674
rfoot -31.1281 -40.9787
rtoes 42.3229
lfemur -6.29202 -33.2641 -15.8804
ltibia 9.78064
lfoot -30.2757 35.0512
ltoes 34.2952
4743
root 10.7373 16.7469 -1.65348 9.14269 -33.6812 2.43473
lowerback 1.02089 0.595401 -0.523493
upperback -3.5526 0.770454 0.10969
thorax -4.23772 0.398096 0.370451
lowerneck -15.1675 7.94824 -0.0823638
upperneck 20.1939 9.33375 7.35106
head 8.4066 5.15936 3.54066
rclavicle 7.55382e-014 -1.90833e-014
rhumerus -1.70122 19.8967 -76.5932
rradius 90.2139
rwrist 11.654
rhand 2.33083 -1059.26
rfingers 7.12502
rthumb 27.8209 -7.22346
lclavicle 7.55382e-014 -1.90833e-014
lhumerus -6.91784 -28.2471 76.3675
lradius 94.4918
lwrist -53.9609
lhand 4.06908 37.1746
lfingers 7.12502
lthumb 29.4817 2224.85
rfemur -24.6856 32.4314 9.86069
rtibia 23.2839
rfoot -30.8445 -41.279
rtoes 42.1091
lfemur -6.09769 -33.3148 -15.9795
ltibia 9.50595
lfoot -29.6564 35.4764
ltoes 33.0643
4744
root 10.7356 16.7472 -1.65401 9.09205 -33.6544 2.46448
lowerback 1.01982 0.59822 -0.53215
upperback -3.53521 0.774359 0.116378
thorax -4.21928 0.400442 0.382127
lowerneck -15.155 7.9411 -0.147247
upperneck 20.1891 9.32092 7.4389
head 8.39483 5.15787 3.57719
rclavicle -7.0817e-014 -1.98785e-014
rhumerus -1.58287 19.8806 -76.5538
rradius 90.1087
rwrist 11.722
rhand 2.40473 -1059.16
rfingers 7.12502
rthumb 27.8916 -7.11282
lclavicle -7.0817e-014 -1.98785e-014
lhumerus -6.97514 -28.1832 76.5184
lradius 94.3958
lwrist -54.2401
lhand 3.83417 37.0291
lfingers 7.12502
lthumb 29.2574 2224.75
rfemur -24.6562 32.4682 9.86011
rtibia 23.3373
rfoot -31.5386 -41.0192
rtoes 42.3377
lfemur -6.00501 -33.392 -16.0232
ltibia 9.38967
lfoot -28.9513 35.9402
ltoes 31.9142
4745
root 10.7344 16.746 -1.65843 9.14818 -33.5951 2.3982
lowerback 0.995901 0.613487 -0.472405
upperback -3.50993 0.797973 0.142661
thorax -4.17918 0.410631 0.375073
lowerneck -15.2041 7.97788 -0.151229
upperneck 20.1977 9.36188 7.48376
head 8.40205 5.18222 3.59986
rclavicle 5.2181e-015 -5.56597e-015
rhumerus -1.43214 19.8753 -76.4244
rradius 90.0611
rwrist 11.6691
rhand 2.38831 -1059.36
rfingers 7.12502
rthumb 27.8759 -7.3081
lclavicle 5.2181e-015 -5.56597e-015
lhumerus -6.90258 -28.1876 76.5955
lradius 94.3447
lwrist -54.0926
lhand 3.78337 36.6994
lfingers 7.12502
lthumb 29.2089 2224.43
rfemur -24.6462 32.4308 9.94114
rtibia 23.3229
rfoot -32.4381 -40.5066
rtoes 43.1519
lfemur -6.0974 -33.4819 -15.912
ltibia 9.45294
lfoot -28.8272 36.1256
ltoes 31.7886
4746
root 10.7325 16.7452 -1.66409 9.18937 -33.5189 2.27676
lowerback 1.04007 0.609489 -0.37981
upperback -3.48416 0.796691 0.169681
thorax -4.17648 0.407441 0.350778
lowerneck -15.266 8.03819 -0.104171
upperneck 20.2658 9.41683 7.54346
head 8.43324 5.21851 3.62476
rclavicle -6.42323e-014 2.26615e-014
rhumerus -1.34177 19.7913 -76.4299
rradius 90.1038
rwrist 11.7147
rhand 2.41574 -1059.38
rfingers 7.12502
rthumb 27.9021 -7.32813
lclavicle -6.42323e-014 2.26615e-014
lhumerus -6.6591 -28.1343 76.5439
lradius 94.1993
lwrist -53.5962
lhand 3.83013 36.5696
lfingers 7.12502
lthumb 29.2535 2224.29
rfemur -24.6487 32.6613 10.0206
rtibia 23.3291
rfoot -32.4182 -40.7573
rtoes 43.3349
lfemur -6.11562 -33.5826 -15.7623
ltibia 9.4561
lfoot -28.8723 36.2058
ltoes 31.6889
4747
root 10.7301 16.7435 -1.66774 9.16084 -33.4947 2.22075
lowerback 1.10444 0.626316 -0.341426
upperback -3.4567 0.82078 0.175308
thorax -4.18421 0.418347 0.333379
lowerneck -15.2522 8.05029 -0.153366
upperneck 20.2567 9.42233 7.65204
head 8.41867 5.22906 3.66729
rclavicle -7.5886e-014 -1.27222e-014
rhumerus -1.33196 19.5804 -76.5735
rradius 90.2399
rwrist 11.9401
rhand 2.57585 -1059.39
rfingers 7.12502
rthumb 28.0552 -7.30995
lclavicle -7.5886e-014 -1.27222e-014
lhumerus -6.30797 -28.1278 76.4243
lradius 93.9782
lwrist -53.2382
lhand 3.51302 36.7283
lfingers 7.12502
lthumb 28.9507 2224.5
rfemur -24.6162 32.796 10.0826
rtibia 23.3516
rfoot -32.7783 -40.717
rtoes 43.5365
lfemur -6.03548 -33.6457 -15.728
ltibia 9.42141
lfoot -29.006 36.1379
ltoes 31.6198
4748
root 10.7283 16.7439 -1.6709 9.14637 -33.5094 2.26187
lowerback 1.08551 0.636324 -0.391787
upperback -3.4394 0.832169 0.161197
thorax -4.15612 0.42542 0.34684
lowerneck -15.1791 8.0892 -0.126357
upperneck 20.1763 9.47393 7.64976
head 8.37764 5.25456 3.65958
rclavicle -1.10649e-013 -9.14409e-015
rhumerus -1.29997 19.5686 -76.6009
rradius 90.3659
rwrist 11.9562
rhand 2.6022 -1059.69
rfingers 7.12502
rthumb 28.0804 -7.60794
lclavicle -1.10649e-013 -9.14409e-015
lhumerus -6.10244 -28.1336 76.315
lradius 93.8696
lwrist -53.1073
lhand 3.32593 36.8581
lfingers 7.12502
lthumb 28.772 2224.66
rfemur -24.6092 32.6416 10.1019
rtibia 23.3555
rfoot -31.8705 -41.1484
rtoes 42.3862
lfemur -6.04585 -33.6795 -15.7482
ltibia 9.43135
lfoot -29.1706 36.0914
ltoes 31.2654
